<svg id="Layer_1" data-name="Layer 1" xmlns="http://www.w3.org/2000/svg" viewBox="0 0 1003.61 365.81"><defs><style>.cls-1{fill:#fff;}.cls-2{fill:#fff;}</style></defs><path class="cls-1" d="M65.07,314.87c.32,18.43-10.93,37.07-36.44,37.07H0V279.06H28.63C53.62,279.06,64.76,296.86,65.07,314.87ZM13.64,338.72h15c16.56,0,23.12-12.08,22.8-24-.31-11.35-7-22.7-22.8-22.7h-15Z"/><path class="cls-1" d="M132.75,351.94H78.19V279.06h54.56v13.32H91.83v16.77h39.46V322H91.83v16.46h40.92Z"/><path class="cls-1" d="M190.85,296.65c-2.5-4.16-9.37-8.12-17.28-8.12-10.21,0-15.1,4.27-15.1,9.69,0,6.35,7.5,8.12,16.24,9.16,15.2,1.87,29.36,5.83,29.36,23.22,0,16.24-14.36,23.22-30.61,23.22-14.89,0-26.34-4.59-31.75-17.91L153.16,330c3.23,8,11.66,11.56,20.51,11.56,8.64,0,16.76-3,16.76-10.93,0-6.88-7.18-9.69-16.86-10.73-14.89-1.77-28.64-5.72-28.64-22.07,0-15,14.79-21.14,28.22-21.24,11.35,0,23.11,3.23,28.63,14.47Z"/><path class="cls-1" d="M216.57,351.94V279.06h13.64v72.88Z"/><path class="cls-1" d="M300.28,296.86a28,28,0,0,0-18.54-7.29c-15.61,0-25.09,11.87-25.09,26.87,0,12,7,24.36,25.09,24.36A24.26,24.26,0,0,0,298.2,335V322.06H279.56V309.77h31.23v30.72c-7.18,8.22-16.24,13.12-29.05,13.12-27.38,0-38.52-18-38.52-37.17,0-20.52,12.81-39.47,38.52-39.47a38.49,38.49,0,0,1,27.08,11.15Z"/><path class="cls-1" d="M374.72,328.1v-49h13.75v72.88H377.33l-38.74-48.52v48.52H324.85V279.06H336Z"/><path class="cls-1" d="M483.74,296.86a28,28,0,0,0-18.54-7.29c-15.62,0-25.09,11.87-25.09,26.87,0,12,7,24.36,25.09,24.36A24.22,24.22,0,0,0,481.65,335V322.06H463V309.77h31.23v30.72c-7.18,8.22-16.24,13.12-29.05,13.12-27.38,0-38.52-18-38.52-37.17,0-20.52,12.8-39.47,38.52-39.47a38.45,38.45,0,0,1,27.07,11.15Z"/><path class="cls-1" d="M572.86,351.94H557.14L536,327.58h-14v24.36H508.31V279c11.55,0,23.11.11,34.67.11,17.18.1,26.24,11.56,26.24,24.15,0,10-4.58,20.1-18.43,22.91L572.86,351Zm-50.81-60.08v23.33H543c8.75,0,12.49-5.83,12.49-11.66s-3.85-11.67-12.49-11.67Z"/><path class="cls-1" d="M654.18,315.92c-.21,18.84-11.76,37.69-37.38,37.69S579.32,335.18,579.32,316c0-23,16.66-38.42,37.79-38.42C642,277.81,654.39,297,654.18,315.92ZM616.8,341c17.18,0,23.64-12.91,23.85-24.89.2-12.18-6.77-25.71-23.54-26-15.51,0-24.67,11.66-24.26,26.14C593.17,328.2,599.62,341,616.8,341Z"/><path class="cls-1" d="M730.08,279.16v41.75c0,21.56-13.22,32.59-31.55,32.59-17.49,0-32.38-10.62-32.38-32.59V279.16h13.64v41.75c0,13.12,7.5,20.1,18.85,20.1s17.8-7.6,17.8-20.1V279.16Z"/><path class="cls-1" d="M760.17,330.49v21.45H746.43V279.06c11.35,0,23-.11,34.36-.11,35.82,0,35.92,51.23,0,51.54Zm0-12.6h20.62c17.6,0,17.49-25.82,0-25.82H760.17Z"/><path class="cls-2" d="M827.71,341.82a10.48,10.48,0,0,0-4.42-4.75,12.06,12.06,0,0,0-5.85-1.51,11.24,11.24,0,0,0-7.35,2.63,10,10,0,0,0-2.57,3.46,11.06,11.06,0,0,0-.92,4.56,9.83,9.83,0,0,0,.57,3.42,8.63,8.63,0,0,0,3,4c.28.2.56.37.85.54l-2.24,11.65H823l.82-2.53c2.3-7,3.47-10.62,4.09-12.67.31-1,.5-1.69.62-2.31a7.92,7.92,0,0,0,.16-1.63v-.14A11.22,11.22,0,0,0,827.71,341.82Z"/><path class="cls-1" d="M878.35,330.49v21.45H864.6V279.06c11.35,0,23-.11,34.36-.11,35.82,0,35.93,51.23,0,51.54Zm0-12.6H899c17.6,0,17.5-25.82,0-25.82H878.35Z"/><path class="cls-1" d="M982.47,338.2H944.36l-6.25,13.74H923.22l32.7-72.88h15l32.7,72.88h-15Zm-19.05-43.84-13.54,31H977Z"/><path class="cls-2" d="M454.88,35.73c-20.17-21-49.19-34-84.33-34s-63.84,13-83.68,34-30.82,49.83-30.82,81.41c0,31.78,10.75,60.64,30.54,81.56s48.61,33.83,84.4,33.82,64.72-12.89,84.62-33.81,30.77-49.78,30.77-81.57C486.38,85.56,475.06,56.69,454.88,35.73ZM371,179.52c-19.21,0-33.45-7.5-43-19s-14.47-27.14-14.47-43.37c0-16,5-31.77,14.64-43.44S352,54.35,371,54.33a54,54,0,0,1,41.9,19.4,67.48,67.48,0,0,1,15.61,43.42c0,16.23-4.88,31.87-14.46,43.37S390.21,179.5,371,179.52Z"/><polygon class="cls-2" points="740.42 1.76 678.06 1.76 620.59 150.07 562.71 1.76 490 1.76 587.43 230.77 653.8 230.77 750.76 1.76 740.42 1.76"/><path class="cls-2" d="M948.44,4V24C929.16,9,904.15,0,874.91,0c-35.41,0-64.33,13.11-84.32,34.25s-31.06,50.2-31.05,82c0,32,10.83,61.11,30.77,82.18s49,34.09,85.05,34.08c29.34,0,54.07-8.63,73.08-23.2v18.75h55.17V4ZM933.3,116.27c0,16.36-4.92,32.11-14.57,43.71s-24,19.12-43.37,19.13S841.65,171.56,832,160s-14.57-27.35-14.57-43.71c0-16.13,5-32,14.75-43.77S856.24,53,875.36,53a54.39,54.39,0,0,1,42.21,19.55A67.92,67.92,0,0,1,933.3,116.27Z"/><path class="cls-2" d="M151.68,127.05c-1.64-27.46-1.64-37.92-2-46.74V1.85h65.05V230.68H159.85L64.4,107.44l1,50v73.23H0V1.85H54.92Z"/></svg>